<mxfile host="app.diagrams.net" modified="2021-01-22T09:10:17.905Z" agent="5.0 (Windows NT 10.0; Win64; x64) AppleWebKit/537.36 (KHTML, like Gecko) Chrome/87.0.4280.88 Safari/537.36" etag="s5CyJA__6OcBPKFiQzzU" version="14.2.5" type="github">
  <diagram id="4r9hvT9p2KtW1Z8WkQpQ" name="Page-1">
    <mxGraphModel dx="867" dy="737" grid="1" gridSize="10" guides="1" tooltips="1" connect="1" arrows="1" fold="1" page="1" pageScale="1" pageWidth="827" pageHeight="1169" math="0" shadow="0">
      <root>
        <mxCell id="0" />
        <mxCell id="1" parent="0" />
        <mxCell id="OjrGZWiavvONDlh6qy8l-2" value="mall_user_info(用户表)" style="shape=table;startSize=30;container=1;collapsible=1;childLayout=tableLayout;fixedRows=1;rowLines=0;fontStyle=1;align=center;resizeLast=1;fillColor=#007FFF;" vertex="1" parent="1">
          <mxGeometry x="630" y="410" width="190" height="90" as="geometry" />
        </mxCell>
        <mxCell id="OjrGZWiavvONDlh6qy8l-3" value="" style="shape=partialRectangle;collapsible=0;dropTarget=0;pointerEvents=0;fillColor=none;top=0;left=0;bottom=1;right=0;points=[[0,0.5],[1,0.5]];portConstraint=eastwest;" vertex="1" parent="OjrGZWiavvONDlh6qy8l-2">
          <mxGeometry y="30" width="190" height="30" as="geometry" />
        </mxCell>
        <mxCell id="OjrGZWiavvONDlh6qy8l-4" value="PK" style="shape=partialRectangle;connectable=0;fillColor=none;top=0;left=0;bottom=0;right=0;fontStyle=1;overflow=hidden;" vertex="1" parent="OjrGZWiavvONDlh6qy8l-3">
          <mxGeometry width="30" height="30" as="geometry" />
        </mxCell>
        <mxCell id="OjrGZWiavvONDlh6qy8l-5" value="id" style="shape=partialRectangle;connectable=0;fillColor=none;top=0;left=0;bottom=0;right=0;align=left;spacingLeft=6;fontStyle=5;overflow=hidden;" vertex="1" parent="OjrGZWiavvONDlh6qy8l-3">
          <mxGeometry x="30" width="160" height="30" as="geometry" />
        </mxCell>
        <mxCell id="OjrGZWiavvONDlh6qy8l-6" value="" style="shape=partialRectangle;collapsible=0;dropTarget=0;pointerEvents=0;fillColor=none;top=0;left=0;bottom=0;right=0;points=[[0,0.5],[1,0.5]];portConstraint=eastwest;" vertex="1" parent="OjrGZWiavvONDlh6qy8l-2">
          <mxGeometry y="60" width="190" height="30" as="geometry" />
        </mxCell>
        <mxCell id="OjrGZWiavvONDlh6qy8l-7" value="" style="shape=partialRectangle;connectable=0;fillColor=none;top=0;left=0;bottom=0;right=0;editable=1;overflow=hidden;" vertex="1" parent="OjrGZWiavvONDlh6qy8l-6">
          <mxGeometry width="30" height="30" as="geometry" />
        </mxCell>
        <mxCell id="OjrGZWiavvONDlh6qy8l-8" value="" style="shape=partialRectangle;connectable=0;fillColor=none;top=0;left=0;bottom=0;right=0;align=left;spacingLeft=6;overflow=hidden;" vertex="1" parent="OjrGZWiavvONDlh6qy8l-6">
          <mxGeometry x="30" width="160" height="30" as="geometry" />
        </mxCell>
        <mxCell id="OjrGZWiavvONDlh6qy8l-36" value="mall_agent_apply（代理申请）" style="shape=table;startSize=30;container=1;collapsible=1;childLayout=tableLayout;fixedRows=1;rowLines=0;fontStyle=1;align=center;resizeLast=1;fillColor=#007FFF;" vertex="1" parent="1">
          <mxGeometry x="640" y="50.5" width="200" height="143" as="geometry" />
        </mxCell>
        <mxCell id="OjrGZWiavvONDlh6qy8l-37" value="" style="shape=partialRectangle;collapsible=0;dropTarget=0;pointerEvents=0;fillColor=none;top=0;left=0;bottom=1;right=0;points=[[0,0.5],[1,0.5]];portConstraint=eastwest;" vertex="1" parent="OjrGZWiavvONDlh6qy8l-36">
          <mxGeometry y="30" width="200" height="30" as="geometry" />
        </mxCell>
        <mxCell id="OjrGZWiavvONDlh6qy8l-38" value="PK" style="shape=partialRectangle;connectable=0;fillColor=none;top=0;left=0;bottom=0;right=0;fontStyle=1;overflow=hidden;" vertex="1" parent="OjrGZWiavvONDlh6qy8l-37">
          <mxGeometry width="30" height="30" as="geometry" />
        </mxCell>
        <mxCell id="OjrGZWiavvONDlh6qy8l-39" value="id" style="shape=partialRectangle;connectable=0;fillColor=none;top=0;left=0;bottom=0;right=0;align=left;spacingLeft=6;fontStyle=5;overflow=hidden;" vertex="1" parent="OjrGZWiavvONDlh6qy8l-37">
          <mxGeometry x="30" width="170" height="30" as="geometry" />
        </mxCell>
        <mxCell id="OjrGZWiavvONDlh6qy8l-40" value="" style="shape=partialRectangle;collapsible=0;dropTarget=0;pointerEvents=0;fillColor=none;top=0;left=0;bottom=0;right=0;points=[[0,0.5],[1,0.5]];portConstraint=eastwest;" vertex="1" parent="OjrGZWiavvONDlh6qy8l-36">
          <mxGeometry y="60" width="200" height="30" as="geometry" />
        </mxCell>
        <mxCell id="OjrGZWiavvONDlh6qy8l-41" value="" style="shape=partialRectangle;connectable=0;fillColor=none;top=0;left=0;bottom=0;right=0;editable=1;overflow=hidden;" vertex="1" parent="OjrGZWiavvONDlh6qy8l-40">
          <mxGeometry width="30" height="30" as="geometry" />
        </mxCell>
        <mxCell id="OjrGZWiavvONDlh6qy8l-42" value="user_id  申请代理人的id" style="shape=partialRectangle;connectable=0;fillColor=none;top=0;left=0;bottom=0;right=0;align=left;spacingLeft=6;overflow=hidden;" vertex="1" parent="OjrGZWiavvONDlh6qy8l-40">
          <mxGeometry x="30" width="170" height="30" as="geometry" />
        </mxCell>
        <mxCell id="OjrGZWiavvONDlh6qy8l-43" value="" style="shape=partialRectangle;collapsible=0;dropTarget=0;pointerEvents=0;fillColor=none;top=0;left=0;bottom=0;right=0;points=[[0,0.5],[1,0.5]];portConstraint=eastwest;" vertex="1" parent="OjrGZWiavvONDlh6qy8l-36">
          <mxGeometry y="90" width="200" height="23" as="geometry" />
        </mxCell>
        <mxCell id="OjrGZWiavvONDlh6qy8l-44" value="" style="shape=partialRectangle;connectable=0;fillColor=none;top=0;left=0;bottom=0;right=0;editable=1;overflow=hidden;" vertex="1" parent="OjrGZWiavvONDlh6qy8l-43">
          <mxGeometry width="30" height="23" as="geometry" />
        </mxCell>
        <mxCell id="OjrGZWiavvONDlh6qy8l-45" value="refer_uerId  推荐人" style="shape=partialRectangle;connectable=0;fillColor=none;top=0;left=0;bottom=0;right=0;align=left;spacingLeft=6;overflow=hidden;" vertex="1" parent="OjrGZWiavvONDlh6qy8l-43">
          <mxGeometry x="30" width="170" height="23" as="geometry" />
        </mxCell>
        <mxCell id="OjrGZWiavvONDlh6qy8l-68" value="" style="shape=partialRectangle;collapsible=0;dropTarget=0;pointerEvents=0;fillColor=none;top=0;left=0;bottom=0;right=0;points=[[0,0.5],[1,0.5]];portConstraint=eastwest;" vertex="1" parent="OjrGZWiavvONDlh6qy8l-36">
          <mxGeometry y="113" width="200" height="23" as="geometry" />
        </mxCell>
        <mxCell id="OjrGZWiavvONDlh6qy8l-69" value="" style="shape=partialRectangle;connectable=0;fillColor=none;top=0;left=0;bottom=0;right=0;editable=1;overflow=hidden;" vertex="1" parent="OjrGZWiavvONDlh6qy8l-68">
          <mxGeometry width="30" height="23" as="geometry" />
        </mxCell>
        <mxCell id="OjrGZWiavvONDlh6qy8l-70" value="type 申请类型 0 直接 1 独立" style="shape=partialRectangle;connectable=0;fillColor=none;top=0;left=0;bottom=0;right=0;align=left;spacingLeft=6;overflow=hidden;" vertex="1" parent="OjrGZWiavvONDlh6qy8l-68">
          <mxGeometry x="30" width="170" height="23" as="geometry" />
        </mxCell>
        <mxCell id="OjrGZWiavvONDlh6qy8l-55" value="mall_agent_info（直接）" style="shape=table;startSize=30;container=1;collapsible=1;childLayout=tableLayout;fixedRows=1;rowLines=0;fontStyle=1;align=center;resizeLast=1;fillColor=#007FFF;" vertex="1" parent="1">
          <mxGeometry x="200" y="380" width="210" height="190" as="geometry" />
        </mxCell>
        <mxCell id="OjrGZWiavvONDlh6qy8l-56" value="" style="shape=partialRectangle;collapsible=0;dropTarget=0;pointerEvents=0;fillColor=none;top=0;left=0;bottom=1;right=0;points=[[0,0.5],[1,0.5]];portConstraint=eastwest;" vertex="1" parent="OjrGZWiavvONDlh6qy8l-55">
          <mxGeometry y="30" width="210" height="30" as="geometry" />
        </mxCell>
        <mxCell id="OjrGZWiavvONDlh6qy8l-57" value="PK" style="shape=partialRectangle;connectable=0;fillColor=none;top=0;left=0;bottom=0;right=0;fontStyle=1;overflow=hidden;" vertex="1" parent="OjrGZWiavvONDlh6qy8l-56">
          <mxGeometry width="30" height="30" as="geometry" />
        </mxCell>
        <mxCell id="OjrGZWiavvONDlh6qy8l-58" value="id" style="shape=partialRectangle;connectable=0;fillColor=none;top=0;left=0;bottom=0;right=0;align=left;spacingLeft=6;fontStyle=5;overflow=hidden;" vertex="1" parent="OjrGZWiavvONDlh6qy8l-56">
          <mxGeometry x="30" width="180" height="30" as="geometry" />
        </mxCell>
        <mxCell id="OjrGZWiavvONDlh6qy8l-59" value="" style="shape=partialRectangle;collapsible=0;dropTarget=0;pointerEvents=0;fillColor=none;top=0;left=0;bottom=0;right=0;points=[[0,0.5],[1,0.5]];portConstraint=eastwest;" vertex="1" parent="OjrGZWiavvONDlh6qy8l-55">
          <mxGeometry y="60" width="210" height="30" as="geometry" />
        </mxCell>
        <mxCell id="OjrGZWiavvONDlh6qy8l-60" value="" style="shape=partialRectangle;connectable=0;fillColor=none;top=0;left=0;bottom=0;right=0;editable=1;overflow=hidden;" vertex="1" parent="OjrGZWiavvONDlh6qy8l-59">
          <mxGeometry width="30" height="30" as="geometry" />
        </mxCell>
        <mxCell id="OjrGZWiavvONDlh6qy8l-61" value="user_id 代理人" style="shape=partialRectangle;connectable=0;fillColor=none;top=0;left=0;bottom=0;right=0;align=left;spacingLeft=6;overflow=hidden;" vertex="1" parent="OjrGZWiavvONDlh6qy8l-59">
          <mxGeometry x="30" width="180" height="30" as="geometry" />
        </mxCell>
        <mxCell id="OjrGZWiavvONDlh6qy8l-62" value="" style="shape=partialRectangle;collapsible=0;dropTarget=0;pointerEvents=0;fillColor=none;top=0;left=0;bottom=0;right=0;points=[[0,0.5],[1,0.5]];portConstraint=eastwest;" vertex="1" parent="OjrGZWiavvONDlh6qy8l-55">
          <mxGeometry y="90" width="210" height="30" as="geometry" />
        </mxCell>
        <mxCell id="OjrGZWiavvONDlh6qy8l-63" value="" style="shape=partialRectangle;connectable=0;fillColor=none;top=0;left=0;bottom=0;right=0;editable=1;overflow=hidden;" vertex="1" parent="OjrGZWiavvONDlh6qy8l-62">
          <mxGeometry width="30" height="30" as="geometry" />
        </mxCell>
        <mxCell id="OjrGZWiavvONDlh6qy8l-64" value="one_user 一级用户数" style="shape=partialRectangle;connectable=0;fillColor=none;top=0;left=0;bottom=0;right=0;align=left;spacingLeft=6;overflow=hidden;" vertex="1" parent="OjrGZWiavvONDlh6qy8l-62">
          <mxGeometry x="30" width="180" height="30" as="geometry" />
        </mxCell>
        <mxCell id="OjrGZWiavvONDlh6qy8l-65" value="" style="shape=partialRectangle;collapsible=0;dropTarget=0;pointerEvents=0;fillColor=none;top=0;left=0;bottom=0;right=0;points=[[0,0.5],[1,0.5]];portConstraint=eastwest;" vertex="1" parent="OjrGZWiavvONDlh6qy8l-55">
          <mxGeometry y="120" width="210" height="30" as="geometry" />
        </mxCell>
        <mxCell id="OjrGZWiavvONDlh6qy8l-66" value="" style="shape=partialRectangle;connectable=0;fillColor=none;top=0;left=0;bottom=0;right=0;editable=1;overflow=hidden;" vertex="1" parent="OjrGZWiavvONDlh6qy8l-65">
          <mxGeometry width="30" height="30" as="geometry" />
        </mxCell>
        <mxCell id="OjrGZWiavvONDlh6qy8l-67" value="two_user 二级用户数" style="shape=partialRectangle;connectable=0;fillColor=none;top=0;left=0;bottom=0;right=0;align=left;spacingLeft=6;overflow=hidden;" vertex="1" parent="OjrGZWiavvONDlh6qy8l-65">
          <mxGeometry x="30" width="180" height="30" as="geometry" />
        </mxCell>
        <mxCell id="OjrGZWiavvONDlh6qy8l-71" value="" style="shape=partialRectangle;collapsible=0;dropTarget=0;pointerEvents=0;fillColor=none;top=0;left=0;bottom=0;right=0;points=[[0,0.5],[1,0.5]];portConstraint=eastwest;" vertex="1" parent="OjrGZWiavvONDlh6qy8l-55">
          <mxGeometry y="150" width="210" height="30" as="geometry" />
        </mxCell>
        <mxCell id="OjrGZWiavvONDlh6qy8l-72" value="" style="shape=partialRectangle;connectable=0;fillColor=none;top=0;left=0;bottom=0;right=0;editable=1;overflow=hidden;" vertex="1" parent="OjrGZWiavvONDlh6qy8l-71">
          <mxGeometry width="30" height="30" as="geometry" />
        </mxCell>
        <mxCell id="OjrGZWiavvONDlh6qy8l-73" value="status 代理状态 0 冻结 1 正常" style="shape=partialRectangle;connectable=0;fillColor=none;top=0;left=0;bottom=0;right=0;align=left;spacingLeft=6;overflow=hidden;" vertex="1" parent="OjrGZWiavvONDlh6qy8l-71">
          <mxGeometry x="30" width="180" height="30" as="geometry" />
        </mxCell>
        <mxCell id="OjrGZWiavvONDlh6qy8l-79" value="mall_agent_independent（独立）" style="shape=table;startSize=30;container=1;collapsible=1;childLayout=tableLayout;fixedRows=1;rowLines=0;fontStyle=1;align=center;resizeLast=1;fillColor=#007FFF;" vertex="1" parent="1">
          <mxGeometry x="1070" y="310" width="210" height="160" as="geometry" />
        </mxCell>
        <mxCell id="OjrGZWiavvONDlh6qy8l-80" value="" style="shape=partialRectangle;collapsible=0;dropTarget=0;pointerEvents=0;fillColor=none;top=0;left=0;bottom=1;right=0;points=[[0,0.5],[1,0.5]];portConstraint=eastwest;" vertex="1" parent="OjrGZWiavvONDlh6qy8l-79">
          <mxGeometry y="30" width="210" height="30" as="geometry" />
        </mxCell>
        <mxCell id="OjrGZWiavvONDlh6qy8l-81" value="PK" style="shape=partialRectangle;connectable=0;fillColor=none;top=0;left=0;bottom=0;right=0;fontStyle=1;overflow=hidden;" vertex="1" parent="OjrGZWiavvONDlh6qy8l-80">
          <mxGeometry width="30" height="30" as="geometry" />
        </mxCell>
        <mxCell id="OjrGZWiavvONDlh6qy8l-82" value="id" style="shape=partialRectangle;connectable=0;fillColor=none;top=0;left=0;bottom=0;right=0;align=left;spacingLeft=6;fontStyle=5;overflow=hidden;" vertex="1" parent="OjrGZWiavvONDlh6qy8l-80">
          <mxGeometry x="30" width="180" height="30" as="geometry" />
        </mxCell>
        <mxCell id="OjrGZWiavvONDlh6qy8l-83" value="" style="shape=partialRectangle;collapsible=0;dropTarget=0;pointerEvents=0;fillColor=none;top=0;left=0;bottom=0;right=0;points=[[0,0.5],[1,0.5]];portConstraint=eastwest;" vertex="1" parent="OjrGZWiavvONDlh6qy8l-79">
          <mxGeometry y="60" width="210" height="30" as="geometry" />
        </mxCell>
        <mxCell id="OjrGZWiavvONDlh6qy8l-84" value="" style="shape=partialRectangle;connectable=0;fillColor=none;top=0;left=0;bottom=0;right=0;editable=1;overflow=hidden;" vertex="1" parent="OjrGZWiavvONDlh6qy8l-83">
          <mxGeometry width="30" height="30" as="geometry" />
        </mxCell>
        <mxCell id="OjrGZWiavvONDlh6qy8l-85" value="user_id 代理人" style="shape=partialRectangle;connectable=0;fillColor=none;top=0;left=0;bottom=0;right=0;align=left;spacingLeft=6;overflow=hidden;" vertex="1" parent="OjrGZWiavvONDlh6qy8l-83">
          <mxGeometry x="30" width="180" height="30" as="geometry" />
        </mxCell>
        <mxCell id="OjrGZWiavvONDlh6qy8l-92" value="" style="shape=partialRectangle;collapsible=0;dropTarget=0;pointerEvents=0;fillColor=none;top=0;left=0;bottom=0;right=0;points=[[0,0.5],[1,0.5]];portConstraint=eastwest;" vertex="1" parent="OjrGZWiavvONDlh6qy8l-79">
          <mxGeometry y="90" width="210" height="30" as="geometry" />
        </mxCell>
        <mxCell id="OjrGZWiavvONDlh6qy8l-93" value="" style="shape=partialRectangle;connectable=0;fillColor=none;top=0;left=0;bottom=0;right=0;editable=1;overflow=hidden;" vertex="1" parent="OjrGZWiavvONDlh6qy8l-92">
          <mxGeometry width="30" height="30" as="geometry" />
        </mxCell>
        <mxCell id="OjrGZWiavvONDlh6qy8l-94" value="status 代理状态 0 冻结 1 正常" style="shape=partialRectangle;connectable=0;fillColor=none;top=0;left=0;bottom=0;right=0;align=left;spacingLeft=6;overflow=hidden;" vertex="1" parent="OjrGZWiavvONDlh6qy8l-92">
          <mxGeometry x="30" width="180" height="30" as="geometry" />
        </mxCell>
        <mxCell id="OjrGZWiavvONDlh6qy8l-95" value="" style="shape=partialRectangle;collapsible=0;dropTarget=0;pointerEvents=0;fillColor=none;top=0;left=0;bottom=0;right=0;points=[[0,0.5],[1,0.5]];portConstraint=eastwest;" vertex="1" parent="OjrGZWiavvONDlh6qy8l-79">
          <mxGeometry y="120" width="210" height="30" as="geometry" />
        </mxCell>
        <mxCell id="OjrGZWiavvONDlh6qy8l-96" value="" style="shape=partialRectangle;connectable=0;fillColor=none;top=0;left=0;bottom=0;right=0;editable=1;overflow=hidden;" vertex="1" parent="OjrGZWiavvONDlh6qy8l-95">
          <mxGeometry width="30" height="30" as="geometry" />
        </mxCell>
        <mxCell id="OjrGZWiavvONDlh6qy8l-97" value="agent_shop_id 店铺Id" style="shape=partialRectangle;connectable=0;fillColor=none;top=0;left=0;bottom=0;right=0;align=left;spacingLeft=6;overflow=hidden;" vertex="1" parent="OjrGZWiavvONDlh6qy8l-95">
          <mxGeometry x="30" width="180" height="30" as="geometry" />
        </mxCell>
        <mxCell id="OjrGZWiavvONDlh6qy8l-101" value="审核通过" style="text;html=1;align=center;verticalAlign=middle;resizable=0;points=[];autosize=1;" vertex="1" parent="1">
          <mxGeometry x="890" y="330" width="60" height="20" as="geometry" />
        </mxCell>
        <mxCell id="OjrGZWiavvONDlh6qy8l-102" value="mall_agent_earnings_record" style="shape=table;startSize=30;container=1;collapsible=1;childLayout=tableLayout;fixedRows=1;rowLines=0;fontStyle=1;align=center;resizeLast=1;fillColor=#007FFF;" vertex="1" parent="1">
          <mxGeometry x="910" y="630" width="200" height="190" as="geometry" />
        </mxCell>
        <mxCell id="OjrGZWiavvONDlh6qy8l-103" value="" style="shape=partialRectangle;collapsible=0;dropTarget=0;pointerEvents=0;fillColor=none;top=0;left=0;bottom=1;right=0;points=[[0,0.5],[1,0.5]];portConstraint=eastwest;" vertex="1" parent="OjrGZWiavvONDlh6qy8l-102">
          <mxGeometry y="30" width="200" height="30" as="geometry" />
        </mxCell>
        <mxCell id="OjrGZWiavvONDlh6qy8l-104" value="PK" style="shape=partialRectangle;connectable=0;fillColor=none;top=0;left=0;bottom=0;right=0;fontStyle=1;overflow=hidden;" vertex="1" parent="OjrGZWiavvONDlh6qy8l-103">
          <mxGeometry width="30" height="30" as="geometry" />
        </mxCell>
        <mxCell id="OjrGZWiavvONDlh6qy8l-105" value="id" style="shape=partialRectangle;connectable=0;fillColor=none;top=0;left=0;bottom=0;right=0;align=left;spacingLeft=6;fontStyle=5;overflow=hidden;" vertex="1" parent="OjrGZWiavvONDlh6qy8l-103">
          <mxGeometry x="30" width="170" height="30" as="geometry" />
        </mxCell>
        <mxCell id="OjrGZWiavvONDlh6qy8l-106" value="" style="shape=partialRectangle;collapsible=0;dropTarget=0;pointerEvents=0;fillColor=none;top=0;left=0;bottom=0;right=0;points=[[0,0.5],[1,0.5]];portConstraint=eastwest;" vertex="1" parent="OjrGZWiavvONDlh6qy8l-102">
          <mxGeometry y="60" width="200" height="30" as="geometry" />
        </mxCell>
        <mxCell id="OjrGZWiavvONDlh6qy8l-107" value="" style="shape=partialRectangle;connectable=0;fillColor=none;top=0;left=0;bottom=0;right=0;editable=1;overflow=hidden;" vertex="1" parent="OjrGZWiavvONDlh6qy8l-106">
          <mxGeometry width="30" height="30" as="geometry" />
        </mxCell>
        <mxCell id="OjrGZWiavvONDlh6qy8l-108" value="user_id 买家" style="shape=partialRectangle;connectable=0;fillColor=none;top=0;left=0;bottom=0;right=0;align=left;spacingLeft=6;overflow=hidden;" vertex="1" parent="OjrGZWiavvONDlh6qy8l-106">
          <mxGeometry x="30" width="170" height="30" as="geometry" />
        </mxCell>
        <mxCell id="OjrGZWiavvONDlh6qy8l-109" value="" style="shape=partialRectangle;collapsible=0;dropTarget=0;pointerEvents=0;fillColor=none;top=0;left=0;bottom=0;right=0;points=[[0,0.5],[1,0.5]];portConstraint=eastwest;" vertex="1" parent="OjrGZWiavvONDlh6qy8l-102">
          <mxGeometry y="90" width="200" height="30" as="geometry" />
        </mxCell>
        <mxCell id="OjrGZWiavvONDlh6qy8l-110" value="" style="shape=partialRectangle;connectable=0;fillColor=none;top=0;left=0;bottom=0;right=0;editable=1;overflow=hidden;" vertex="1" parent="OjrGZWiavvONDlh6qy8l-109">
          <mxGeometry width="30" height="30" as="geometry" />
        </mxCell>
        <mxCell id="OjrGZWiavvONDlh6qy8l-111" value="one_agent_user_id 一级代理" style="shape=partialRectangle;connectable=0;fillColor=none;top=0;left=0;bottom=0;right=0;align=left;spacingLeft=6;overflow=hidden;" vertex="1" parent="OjrGZWiavvONDlh6qy8l-109">
          <mxGeometry x="30" width="170" height="30" as="geometry" />
        </mxCell>
        <mxCell id="OjrGZWiavvONDlh6qy8l-112" value="" style="shape=partialRectangle;collapsible=0;dropTarget=0;pointerEvents=0;fillColor=none;top=0;left=0;bottom=0;right=0;points=[[0,0.5],[1,0.5]];portConstraint=eastwest;" vertex="1" parent="OjrGZWiavvONDlh6qy8l-102">
          <mxGeometry y="120" width="200" height="30" as="geometry" />
        </mxCell>
        <mxCell id="OjrGZWiavvONDlh6qy8l-113" value="" style="shape=partialRectangle;connectable=0;fillColor=none;top=0;left=0;bottom=0;right=0;editable=1;overflow=hidden;" vertex="1" parent="OjrGZWiavvONDlh6qy8l-112">
          <mxGeometry width="30" height="30" as="geometry" />
        </mxCell>
        <mxCell id="OjrGZWiavvONDlh6qy8l-114" value="two_agent_user_id 二级代理" style="shape=partialRectangle;connectable=0;fillColor=none;top=0;left=0;bottom=0;right=0;align=left;spacingLeft=6;overflow=hidden;" vertex="1" parent="OjrGZWiavvONDlh6qy8l-112">
          <mxGeometry x="30" width="170" height="30" as="geometry" />
        </mxCell>
        <mxCell id="OjrGZWiavvONDlh6qy8l-115" value="" style="shape=partialRectangle;collapsible=0;dropTarget=0;pointerEvents=0;fillColor=none;top=0;left=0;bottom=0;right=0;points=[[0,0.5],[1,0.5]];portConstraint=eastwest;" vertex="1" parent="OjrGZWiavvONDlh6qy8l-102">
          <mxGeometry y="150" width="200" height="30" as="geometry" />
        </mxCell>
        <mxCell id="OjrGZWiavvONDlh6qy8l-116" value="" style="shape=partialRectangle;connectable=0;fillColor=none;top=0;left=0;bottom=0;right=0;editable=1;overflow=hidden;" vertex="1" parent="OjrGZWiavvONDlh6qy8l-115">
          <mxGeometry width="30" height="30" as="geometry" />
        </mxCell>
        <mxCell id="OjrGZWiavvONDlh6qy8l-117" value="order_id 订单id" style="shape=partialRectangle;connectable=0;fillColor=none;top=0;left=0;bottom=0;right=0;align=left;spacingLeft=6;overflow=hidden;" vertex="1" parent="OjrGZWiavvONDlh6qy8l-115">
          <mxGeometry x="30" width="170" height="30" as="geometry" />
        </mxCell>
        <mxCell id="OjrGZWiavvONDlh6qy8l-118" value="mall_agent_independent_record" style="shape=table;startSize=30;container=1;collapsible=1;childLayout=tableLayout;fixedRows=1;rowLines=0;fontStyle=1;align=center;resizeLast=1;fillColor=#007FFF;" vertex="1" parent="1">
          <mxGeometry x="309" y="680" width="210" height="160" as="geometry" />
        </mxCell>
        <mxCell id="OjrGZWiavvONDlh6qy8l-119" value="" style="shape=partialRectangle;collapsible=0;dropTarget=0;pointerEvents=0;fillColor=none;top=0;left=0;bottom=1;right=0;points=[[0,0.5],[1,0.5]];portConstraint=eastwest;" vertex="1" parent="OjrGZWiavvONDlh6qy8l-118">
          <mxGeometry y="30" width="210" height="30" as="geometry" />
        </mxCell>
        <mxCell id="OjrGZWiavvONDlh6qy8l-120" value="PK" style="shape=partialRectangle;connectable=0;fillColor=none;top=0;left=0;bottom=0;right=0;fontStyle=1;overflow=hidden;" vertex="1" parent="OjrGZWiavvONDlh6qy8l-119">
          <mxGeometry width="30" height="30" as="geometry" />
        </mxCell>
        <mxCell id="OjrGZWiavvONDlh6qy8l-121" value="id" style="shape=partialRectangle;connectable=0;fillColor=none;top=0;left=0;bottom=0;right=0;align=left;spacingLeft=6;fontStyle=5;overflow=hidden;" vertex="1" parent="OjrGZWiavvONDlh6qy8l-119">
          <mxGeometry x="30" width="180" height="30" as="geometry" />
        </mxCell>
        <mxCell id="OjrGZWiavvONDlh6qy8l-122" value="" style="shape=partialRectangle;collapsible=0;dropTarget=0;pointerEvents=0;fillColor=none;top=0;left=0;bottom=0;right=0;points=[[0,0.5],[1,0.5]];portConstraint=eastwest;" vertex="1" parent="OjrGZWiavvONDlh6qy8l-118">
          <mxGeometry y="60" width="210" height="30" as="geometry" />
        </mxCell>
        <mxCell id="OjrGZWiavvONDlh6qy8l-123" value="" style="shape=partialRectangle;connectable=0;fillColor=none;top=0;left=0;bottom=0;right=0;editable=1;overflow=hidden;" vertex="1" parent="OjrGZWiavvONDlh6qy8l-122">
          <mxGeometry width="30" height="30" as="geometry" />
        </mxCell>
        <mxCell id="OjrGZWiavvONDlh6qy8l-124" value="user_id 买家" style="shape=partialRectangle;connectable=0;fillColor=none;top=0;left=0;bottom=0;right=0;align=left;spacingLeft=6;overflow=hidden;" vertex="1" parent="OjrGZWiavvONDlh6qy8l-122">
          <mxGeometry x="30" width="180" height="30" as="geometry" />
        </mxCell>
        <mxCell id="OjrGZWiavvONDlh6qy8l-128" value="" style="shape=partialRectangle;collapsible=0;dropTarget=0;pointerEvents=0;fillColor=none;top=0;left=0;bottom=0;right=0;points=[[0,0.5],[1,0.5]];portConstraint=eastwest;" vertex="1" parent="OjrGZWiavvONDlh6qy8l-118">
          <mxGeometry y="90" width="210" height="30" as="geometry" />
        </mxCell>
        <mxCell id="OjrGZWiavvONDlh6qy8l-129" value="" style="shape=partialRectangle;connectable=0;fillColor=none;top=0;left=0;bottom=0;right=0;editable=1;overflow=hidden;" vertex="1" parent="OjrGZWiavvONDlh6qy8l-128">
          <mxGeometry width="30" height="30" as="geometry" />
        </mxCell>
        <mxCell id="OjrGZWiavvONDlh6qy8l-130" value="refer_user_id 独立分销用户id" style="shape=partialRectangle;connectable=0;fillColor=none;top=0;left=0;bottom=0;right=0;align=left;spacingLeft=6;overflow=hidden;" vertex="1" parent="OjrGZWiavvONDlh6qy8l-128">
          <mxGeometry x="30" width="180" height="30" as="geometry" />
        </mxCell>
        <mxCell id="OjrGZWiavvONDlh6qy8l-131" value="" style="shape=partialRectangle;collapsible=0;dropTarget=0;pointerEvents=0;fillColor=none;top=0;left=0;bottom=0;right=0;points=[[0,0.5],[1,0.5]];portConstraint=eastwest;" vertex="1" parent="OjrGZWiavvONDlh6qy8l-118">
          <mxGeometry y="120" width="210" height="30" as="geometry" />
        </mxCell>
        <mxCell id="OjrGZWiavvONDlh6qy8l-132" value="" style="shape=partialRectangle;connectable=0;fillColor=none;top=0;left=0;bottom=0;right=0;editable=1;overflow=hidden;" vertex="1" parent="OjrGZWiavvONDlh6qy8l-131">
          <mxGeometry width="30" height="30" as="geometry" />
        </mxCell>
        <mxCell id="OjrGZWiavvONDlh6qy8l-133" value="order_id 订单id" style="shape=partialRectangle;connectable=0;fillColor=none;top=0;left=0;bottom=0;right=0;align=left;spacingLeft=6;overflow=hidden;" vertex="1" parent="OjrGZWiavvONDlh6qy8l-131">
          <mxGeometry x="30" width="180" height="30" as="geometry" />
        </mxCell>
        <mxCell id="OjrGZWiavvONDlh6qy8l-134" value="mall_agent_approval_history" style="shape=table;startSize=30;container=1;collapsible=1;childLayout=tableLayout;fixedRows=1;rowLines=0;fontStyle=1;align=center;resizeLast=1;fillColor=#007FFF;" vertex="1" parent="1">
          <mxGeometry x="1000" y="50.5" width="210" height="100" as="geometry" />
        </mxCell>
        <mxCell id="OjrGZWiavvONDlh6qy8l-135" value="" style="shape=partialRectangle;collapsible=0;dropTarget=0;pointerEvents=0;fillColor=none;top=0;left=0;bottom=1;right=0;points=[[0,0.5],[1,0.5]];portConstraint=eastwest;" vertex="1" parent="OjrGZWiavvONDlh6qy8l-134">
          <mxGeometry y="30" width="210" height="30" as="geometry" />
        </mxCell>
        <mxCell id="OjrGZWiavvONDlh6qy8l-136" value="PK" style="shape=partialRectangle;connectable=0;fillColor=none;top=0;left=0;bottom=0;right=0;fontStyle=1;overflow=hidden;" vertex="1" parent="OjrGZWiavvONDlh6qy8l-135">
          <mxGeometry width="30" height="30" as="geometry" />
        </mxCell>
        <mxCell id="OjrGZWiavvONDlh6qy8l-137" value="id" style="shape=partialRectangle;connectable=0;fillColor=none;top=0;left=0;bottom=0;right=0;align=left;spacingLeft=6;fontStyle=5;overflow=hidden;" vertex="1" parent="OjrGZWiavvONDlh6qy8l-135">
          <mxGeometry x="30" width="180" height="30" as="geometry" />
        </mxCell>
        <mxCell id="OjrGZWiavvONDlh6qy8l-138" value="" style="shape=partialRectangle;collapsible=0;dropTarget=0;pointerEvents=0;fillColor=none;top=0;left=0;bottom=0;right=0;points=[[0,0.5],[1,0.5]];portConstraint=eastwest;" vertex="1" parent="OjrGZWiavvONDlh6qy8l-134">
          <mxGeometry y="60" width="210" height="30" as="geometry" />
        </mxCell>
        <mxCell id="OjrGZWiavvONDlh6qy8l-139" value="" style="shape=partialRectangle;connectable=0;fillColor=none;top=0;left=0;bottom=0;right=0;editable=1;overflow=hidden;" vertex="1" parent="OjrGZWiavvONDlh6qy8l-138">
          <mxGeometry width="30" height="30" as="geometry" />
        </mxCell>
        <mxCell id="OjrGZWiavvONDlh6qy8l-140" value="agent_apply_id 代理申请id" style="shape=partialRectangle;connectable=0;fillColor=none;top=0;left=0;bottom=0;right=0;align=left;spacingLeft=6;overflow=hidden;" vertex="1" parent="OjrGZWiavvONDlh6qy8l-138">
          <mxGeometry x="30" width="180" height="30" as="geometry" />
        </mxCell>
        <mxCell id="OjrGZWiavvONDlh6qy8l-156" value="mall_sub_shop_detail（独立分销店铺）" style="shape=table;startSize=30;container=1;collapsible=1;childLayout=tableLayout;fixedRows=1;rowLines=0;fontStyle=1;align=center;resizeLast=1;fillColor=#007FFF;" vertex="1" parent="1">
          <mxGeometry x="1380" y="470" width="240" height="100" as="geometry" />
        </mxCell>
        <mxCell id="OjrGZWiavvONDlh6qy8l-157" value="" style="shape=partialRectangle;collapsible=0;dropTarget=0;pointerEvents=0;fillColor=none;top=0;left=0;bottom=1;right=0;points=[[0,0.5],[1,0.5]];portConstraint=eastwest;" vertex="1" parent="OjrGZWiavvONDlh6qy8l-156">
          <mxGeometry y="30" width="240" height="30" as="geometry" />
        </mxCell>
        <mxCell id="OjrGZWiavvONDlh6qy8l-158" value="PK" style="shape=partialRectangle;connectable=0;fillColor=none;top=0;left=0;bottom=0;right=0;fontStyle=1;overflow=hidden;" vertex="1" parent="OjrGZWiavvONDlh6qy8l-157">
          <mxGeometry width="30" height="30" as="geometry" />
        </mxCell>
        <mxCell id="OjrGZWiavvONDlh6qy8l-159" value="id" style="shape=partialRectangle;connectable=0;fillColor=none;top=0;left=0;bottom=0;right=0;align=left;spacingLeft=6;fontStyle=5;overflow=hidden;" vertex="1" parent="OjrGZWiavvONDlh6qy8l-157">
          <mxGeometry x="30" width="210" height="30" as="geometry" />
        </mxCell>
        <mxCell id="OjrGZWiavvONDlh6qy8l-160" value="" style="shape=partialRectangle;collapsible=0;dropTarget=0;pointerEvents=0;fillColor=none;top=0;left=0;bottom=0;right=0;points=[[0,0.5],[1,0.5]];portConstraint=eastwest;" vertex="1" parent="OjrGZWiavvONDlh6qy8l-156">
          <mxGeometry y="60" width="240" height="30" as="geometry" />
        </mxCell>
        <mxCell id="OjrGZWiavvONDlh6qy8l-161" value="" style="shape=partialRectangle;connectable=0;fillColor=none;top=0;left=0;bottom=0;right=0;editable=1;overflow=hidden;" vertex="1" parent="OjrGZWiavvONDlh6qy8l-160">
          <mxGeometry width="30" height="30" as="geometry" />
        </mxCell>
        <mxCell id="OjrGZWiavvONDlh6qy8l-162" value="user_id 代理人" style="shape=partialRectangle;connectable=0;fillColor=none;top=0;left=0;bottom=0;right=0;align=left;spacingLeft=6;overflow=hidden;" vertex="1" parent="OjrGZWiavvONDlh6qy8l-160">
          <mxGeometry x="30" width="210" height="30" as="geometry" />
        </mxCell>
        <mxCell id="OjrGZWiavvONDlh6qy8l-169" style="edgeStyle=orthogonalEdgeStyle;rounded=0;orthogonalLoop=1;jettySize=auto;html=1;entryX=0;entryY=0.5;entryDx=0;entryDy=0;" edge="1" parent="1" source="OjrGZWiavvONDlh6qy8l-95" target="OjrGZWiavvONDlh6qy8l-157">
          <mxGeometry relative="1" as="geometry" />
        </mxCell>
        <mxCell id="OjrGZWiavvONDlh6qy8l-181" value="Actor" style="shape=umlActor;verticalLabelPosition=bottom;verticalAlign=top;html=1;fillColor=#007FFF;" vertex="1" parent="1">
          <mxGeometry x="1030" y="870" width="30" height="60" as="geometry" />
        </mxCell>
        <mxCell id="OjrGZWiavvONDlh6qy8l-182" value="" style="ellipse;html=1;shape=startState;fillColor=#000000;strokeColor=#ff0000;" vertex="1" parent="1">
          <mxGeometry x="1080" y="895" width="30" height="30" as="geometry" />
        </mxCell>
        <mxCell id="OjrGZWiavvONDlh6qy8l-183" value="" style="edgeStyle=orthogonalEdgeStyle;html=1;verticalAlign=bottom;endArrow=open;endSize=8;strokeColor=#ff0000;" edge="1" source="OjrGZWiavvONDlh6qy8l-182" parent="1">
          <mxGeometry relative="1" as="geometry">
            <mxPoint x="1180" y="910" as="targetPoint" />
          </mxGeometry>
        </mxCell>
        <mxCell id="OjrGZWiavvONDlh6qy8l-186" value="判断是否代理单" style="rhombus;whiteSpace=wrap;html=1;fillColor=#ffffc0;strokeColor=#ff0000;" vertex="1" parent="1">
          <mxGeometry x="1180" y="890" width="80" height="40" as="geometry" />
        </mxCell>
        <mxCell id="OjrGZWiavvONDlh6qy8l-187" value="no" style="edgeStyle=orthogonalEdgeStyle;html=1;align=left;verticalAlign=bottom;endArrow=open;endSize=8;strokeColor=#ff0000;" edge="1" source="OjrGZWiavvONDlh6qy8l-186" parent="1">
          <mxGeometry x="-1" relative="1" as="geometry">
            <mxPoint x="1370" y="910" as="targetPoint" />
          </mxGeometry>
        </mxCell>
        <mxCell id="OjrGZWiavvONDlh6qy8l-188" value="yes" style="edgeStyle=orthogonalEdgeStyle;html=1;align=left;verticalAlign=top;endArrow=open;endSize=8;strokeColor=#ff0000;" edge="1" source="OjrGZWiavvONDlh6qy8l-186" parent="1">
          <mxGeometry x="-1" relative="1" as="geometry">
            <mxPoint x="1220" y="985" as="targetPoint" />
            <Array as="points">
              <mxPoint x="1220" y="975" />
              <mxPoint x="1220" y="975" />
            </Array>
          </mxGeometry>
        </mxCell>
        <mxCell id="OjrGZWiavvONDlh6qy8l-189" value="" style="ellipse;html=1;shape=endState;fillColor=#000000;strokeColor=#ff0000;" vertex="1" parent="1">
          <mxGeometry x="1370" y="895" width="30" height="30" as="geometry" />
        </mxCell>
        <mxCell id="OjrGZWiavvONDlh6qy8l-193" value="是否独立分销" style="rhombus;whiteSpace=wrap;html=1;fillColor=#ffffc0;strokeColor=#ff0000;" vertex="1" parent="1">
          <mxGeometry x="1180" y="985" width="80" height="40" as="geometry" />
        </mxCell>
        <mxCell id="OjrGZWiavvONDlh6qy8l-194" value="no" style="edgeStyle=orthogonalEdgeStyle;html=1;align=left;verticalAlign=bottom;endArrow=open;endSize=8;strokeColor=#ff0000;" edge="1" source="OjrGZWiavvONDlh6qy8l-193" parent="1">
          <mxGeometry x="-1" relative="1" as="geometry">
            <mxPoint x="1360" y="1005" as="targetPoint" />
          </mxGeometry>
        </mxCell>
        <mxCell id="OjrGZWiavvONDlh6qy8l-195" value="yes" style="edgeStyle=orthogonalEdgeStyle;html=1;align=left;verticalAlign=top;endArrow=open;endSize=8;strokeColor=#ff0000;" edge="1" source="OjrGZWiavvONDlh6qy8l-193" parent="1">
          <mxGeometry x="-1" relative="1" as="geometry">
            <mxPoint x="1220" y="1085" as="targetPoint" />
          </mxGeometry>
        </mxCell>
        <mxCell id="OjrGZWiavvONDlh6qy8l-196" value="将订单数据保存到&lt;br&gt;&lt;span style=&quot;font-weight: 700&quot;&gt;mall_agent_independent_record&lt;/span&gt;" style="html=1;fillColor=#007FFF;align=center;" vertex="1" parent="1">
          <mxGeometry x="1120" y="1085" width="200" height="50" as="geometry" />
        </mxCell>
        <mxCell id="OjrGZWiavvONDlh6qy8l-197" value="将订单数据保存到&lt;br&gt;&lt;span style=&quot;font-weight: 700&quot;&gt;mall_agent_earnings_record&lt;/span&gt;" style="html=1;fillColor=#007FFF;align=center;" vertex="1" parent="1">
          <mxGeometry x="1360" y="975" width="200" height="50" as="geometry" />
        </mxCell>
        <mxCell id="OjrGZWiavvONDlh6qy8l-198" style="edgeStyle=orthogonalEdgeStyle;rounded=0;orthogonalLoop=1;jettySize=auto;html=1;entryX=0;entryY=0.5;entryDx=0;entryDy=0;" edge="1" parent="1" source="OjrGZWiavvONDlh6qy8l-40" target="OjrGZWiavvONDlh6qy8l-138">
          <mxGeometry relative="1" as="geometry" />
        </mxCell>
        <mxCell id="OjrGZWiavvONDlh6qy8l-199" style="edgeStyle=orthogonalEdgeStyle;rounded=0;orthogonalLoop=1;jettySize=auto;html=1;" edge="1" parent="1" source="OjrGZWiavvONDlh6qy8l-3" target="OjrGZWiavvONDlh6qy8l-59">
          <mxGeometry relative="1" as="geometry" />
        </mxCell>
        <mxCell id="OjrGZWiavvONDlh6qy8l-200" style="edgeStyle=orthogonalEdgeStyle;rounded=0;orthogonalLoop=1;jettySize=auto;html=1;" edge="1" parent="1" source="OjrGZWiavvONDlh6qy8l-3" target="OjrGZWiavvONDlh6qy8l-83">
          <mxGeometry relative="1" as="geometry" />
        </mxCell>
        <mxCell id="OjrGZWiavvONDlh6qy8l-203" style="edgeStyle=orthogonalEdgeStyle;rounded=0;orthogonalLoop=1;jettySize=auto;html=1;" edge="1" parent="1" source="OjrGZWiavvONDlh6qy8l-122" target="OjrGZWiavvONDlh6qy8l-3">
          <mxGeometry relative="1" as="geometry" />
        </mxCell>
        <mxCell id="OjrGZWiavvONDlh6qy8l-205" style="edgeStyle=orthogonalEdgeStyle;rounded=0;orthogonalLoop=1;jettySize=auto;html=1;entryX=0.25;entryY=0;entryDx=0;entryDy=0;" edge="1" parent="1" source="OjrGZWiavvONDlh6qy8l-40" target="OjrGZWiavvONDlh6qy8l-2">
          <mxGeometry relative="1" as="geometry" />
        </mxCell>
        <mxCell id="OjrGZWiavvONDlh6qy8l-206" style="edgeStyle=orthogonalEdgeStyle;rounded=0;orthogonalLoop=1;jettySize=auto;html=1;entryX=0.447;entryY=0.967;entryDx=0;entryDy=0;entryPerimeter=0;" edge="1" parent="1" source="OjrGZWiavvONDlh6qy8l-106" target="OjrGZWiavvONDlh6qy8l-6">
          <mxGeometry relative="1" as="geometry" />
        </mxCell>
      </root>
    </mxGraphModel>
  </diagram>
</mxfile>
